<svg id="Layer_1" enable-background="new 0 0 512 512" height="512" viewBox="0 0 512 512" width="512" xmlns="http://www.w3.org/2000/svg"><g><path d="m392.098 470h-272.196c-5.523 0-10-4.477-10-10v-20h292.197v20c-.001 5.523-4.478 10-10.001 10z" fill="#f3f3f3"/><path d="m372.098 440v30h20c5.523 0 10-4.477 10-10v-20z" fill="#e4e4e4"/><path d="m504.451 126.27-15.85 106.74c-.4 2.67-3 4.44-5.64 3.84l-80.86-18.49v221.64h-292.201v-221.63l-80.86 18.48c-2.64.6-5.24-1.17-5.64-3.84l-15.851-106.74c-.28-1.9.65-3.79 2.34-4.72l79.623-44.191c13.424-7.45 28.523-11.359 43.875-11.359h245.225c15.352 0 30.451 3.909 43.875 11.359l79.623 44.191c1.691.93 2.621 2.82 2.341 4.72z" fill="#42a5f5"/><g fill="#2196f3"><path d="m502.111 121.55-79.623-44.191c-13.424-7.45-28.523-11.359-43.875-11.359h-30c15.352 0 30.451 3.909 43.875 11.359l79.623 44.191c1.69.93 2.62 2.82 2.34 4.72l-15.602 105.067 24.112 5.513c2.64.6 5.24-1.17 5.64-3.84l15.85-106.74c.28-1.9-.65-3.79-2.34-4.72z"/><path d="m372.1 240.654v199.346h30v-221.64l-3.098-.514c-14.086-2.336-26.902 8.529-26.902 22.808z"/></g><path d="m317.885 42.647c-.316.232-31.953 23.216-61.884 23.216-29.794 0-61.279-22.775-61.878-23.212-6.651-4.908-24.302 19.393-17.65 24.314 1.603 1.186 39.708 29.035 79.528 29.035s77.925-27.849 79.528-29.035c6.644-4.915-10.983-29.21-17.644-24.318z" fill="#f3f3f3"/><g><path d="m317.885 42.647c-.138.101-6.215 4.515-15.5 9.467 3.993 5.86 6.288 12.525 3.143 14.852-1.399 1.034-30.628 22.394-64.527 27.797 4.925.785 9.948 1.237 15 1.237 39.82 0 77.925-27.849 79.528-29.035 6.644-4.915-10.983-29.21-17.644-24.318z" fill="#e4e4e4"/></g><g><path d="m274.925 176.26 13.682 27.713c2.071 4.195 6.075 7.103 10.706 7.776l30.594 4.444c17.311 2.514 24.223 23.78 11.697 35.986l-22.138 21.571c-3.351 3.265-4.88 7.97-4.089 12.581l5.226 30.459c2.957 17.235-15.139 30.377-30.622 22.24l-27.364-14.381c-4.142-2.177-9.091-2.177-13.233 0l-27.364 14.381c-15.483 8.137-33.579-5.006-30.622-22.24l5.226-30.459c.791-4.611-.738-9.316-4.089-12.581l-22.138-21.571c-12.526-12.206-5.614-33.471 11.697-35.986l30.594-4.444c4.631-.673 8.635-3.58 10.706-7.776l13.682-27.713c7.74-15.68 30.108-15.68 37.849 0z" fill="#ffde5c"/><g><path d="m341.604 252.178c12.526-12.206 5.614-33.471-11.697-35.986l-30.594-4.444c-4.631-.673-8.635-3.58-10.706-7.776l-13.682-27.713c-7.008-14.195-26.003-15.538-35.282-4.032 2.104 1.787 3.922 4.047 5.282 6.801l13.682 27.713c2.071 4.195 6.075 7.103 10.706 7.776l30.594 4.444c17.311 2.514 24.223 23.78 11.697 35.986l-22.138 21.571c-3.351 3.265-4.88 7.97-4.089 12.581l5.226 30.459c1.155 6.732-.911 12.832-4.77 17.291l4.148 2.18c15.483 8.137 33.579-5.006 30.622-22.24l-5.226-30.459c-.791-4.611.738-9.316 4.089-12.581z" fill="#ffc736"/></g></g><g><path d="m490.93 217.36c-4.097-.61-7.912 2.219-8.52 6.316l-.773 5.203-77.863-17.803c-2.224-.51-4.562.023-6.347 1.446s-2.825 3.582-2.825 5.864v214.118h-277.204v-214.107c0-2.282-1.04-4.441-2.825-5.864-1.785-1.422-4.12-1.955-6.346-1.447l-77.864 17.794-15.104-101.698 43.252-24.002c3.622-2.01 4.928-6.575 2.918-10.196-2.01-3.622-6.576-4.929-10.197-2.918l-44.962 24.951c-4.408 2.426-6.877 7.402-6.142 12.391l15.852 106.738c.499 3.326 2.379 6.324 5.161 8.224 2.787 1.903 6.269 2.566 9.568 1.816l71.69-16.383v212.201c0 .013.002.026.002.039v19.959c0 9.648 7.851 17.498 17.5 17.498h40.108c4.142 0 7.5-3.358 7.5-7.499s-3.358-7.499-7.5-7.499h-40.109c-1.378 0-2.5-1.121-2.5-2.5v-12.499h277.199v12.499c0 1.378-1.122 2.5-2.5 2.5h-199.998c-4.142 0-7.5 3.358-7.5 7.499s3.358 7.499 7.5 7.499h199.998c9.65 0 17.5-7.85 17.5-17.498v-19.959c0-.013.002-.026.002-.039v-212.21l71.698 16.393c3.292.748 6.773.084 9.56-1.818 2.781-1.9 4.662-4.897 5.162-8.233l1.226-8.257c.608-4.096-2.22-7.911-6.317-8.519z"/><path d="m505.752 115.029-79.623-44.186c-14.508-8.047-30.939-12.3-47.518-12.3h-34.81c-1.024-3.721-3.113-7.814-6.249-12.07-8.118-11.011-17.35-14.778-24.094-9.834-.414.3-30.258 21.767-57.457 21.767-27.251 0-57.16-21.552-57.425-21.744-6.736-4.968-15.969-1.226-24.099 9.774-3.155 4.269-5.253 8.375-6.28 12.107h-34.808c-16.579 0-33.01 4.253-47.52 12.301l-6.657 3.694c-3.622 2.01-4.928 6.575-2.918 10.196 1.37 2.468 3.928 3.861 6.565 3.861 1.231 0 2.48-.304 3.633-.944l6.655-3.693c12.287-6.815 26.202-10.417 40.242-10.417h39.32c5.707 4.083 43.506 29.997 83.292 29.997s77.585-25.914 83.292-29.997h39.319c14.04 0 27.955 3.602 40.241 10.416l77.888 43.224-9.632 64.864c-.608 4.097 2.22 7.911 6.317 8.519.374.056.744.083 1.111.083 3.655 0 6.857-2.676 7.409-6.399l9.928-66.85c.731-4.98-1.737-9.955-6.122-12.369zm-323.041-52.785c1.045-3.646 5.716-10.089 8.845-12.191 7.529 5.135 36.232 23.351 64.444 23.351 28.357 0 56.912-18.184 64.45-23.349 3.127 2.105 7.793 8.544 8.837 12.189-7.892 5.473-40.112 26.296-73.287 26.296-33.176 0-65.399-20.826-73.289-26.296z"/><path d="m346.838 257.572c7.854-7.652 10.629-18.882 7.241-29.309-3.389-10.43-12.237-17.888-23.093-19.465l-30.594-4.443c-2.189-.318-4.081-1.692-5.059-3.673l-13.682-27.71c-4.854-9.831-14.683-15.938-25.651-15.938s-20.797 6.107-25.651 15.938l-13.682 27.71c-.979 1.982-2.871 3.355-5.06 3.673l-30.594 4.444c-10.856 1.576-19.705 9.035-23.093 19.465-3.387 10.427-.613 21.657 7.241 29.309l22.138 21.569c1.583 1.542 2.305 3.764 1.932 5.941l-5.226 30.456c-1.854 10.803 2.504 21.518 11.374 27.963 8.873 6.448 20.418 7.284 30.13 2.181l27.364-14.38c1.958-1.028 4.297-1.029 6.255 0l27.364 14.379c4.223 2.219 8.791 3.315 13.337 3.315 5.908 0 11.777-1.852 16.792-5.496 8.87-6.445 13.228-17.16 11.374-27.963l-5.226-30.456c-.374-2.177.349-4.399 1.932-5.941zm-32.607 10.827c-5.12 4.989-7.456 12.174-6.247 19.219l5.226 30.456c.895 5.213-1.127 10.183-5.408 13.294-4.286 3.114-9.643 3.503-14.333 1.038l-27.364-14.379c-3.165-1.663-6.635-2.494-10.106-2.494s-6.942.831-10.106 2.494l-27.363 14.379c-4.69 2.464-10.048 2.076-14.334-1.038-4.281-3.111-6.302-8.08-5.408-13.294l5.226-30.456c1.208-7.045-1.127-14.23-6.248-19.219l-22.138-21.569c-3.791-3.693-5.077-8.901-3.443-13.933 1.636-5.035 5.742-8.495 10.983-9.256l30.594-4.443c7.075-1.028 13.188-5.467 16.353-11.876l13.682-27.71c2.343-4.746 6.904-7.58 12.2-7.58s9.857 2.834 12.2 7.58l13.682 27.71c3.165 6.409 9.278 10.848 16.353 11.876l30.594 4.443c5.242.762 9.348 4.222 10.983 9.256 1.634 5.032.347 10.24-3.443 13.933z"/></g></g></svg>